# This file uses meters as units for non-parametric coordinates.

mtllib Schilderij.mtl
g default
v 171.354355 86.807419 330.227570
v 213.592392 86.807419 330.227570
v 171.354355 119.136826 330.227570
v 213.592392 119.136826 330.227570
v 171.354355 119.136826 322.256561
v 213.592392 119.136826 322.256561
v 171.354355 86.807419 322.256561
v 213.592392 86.807419 322.256561
vt 0.004340 0.235653
vt 0.127477 0.235660
vt 0.127450 0.780660
vt 0.004314 0.780653
vt 0.864843 0.235695
vt 0.987979 0.235701
vt 0.987953 0.780702
vt 0.864816 0.780695
vt 0.864810 0.901821
vt 0.127444 0.901785
vt 0.127483 0.114534
vt 0.864849 0.114570
vn 0.000000 1.000000 0.000000
vn 0.000000 1.000000 0.000000
vn 0.000000 1.000000 0.000000
vn 0.000000 1.000000 0.000000
vn 0.000000 0.000000 -1.000000
vn 0.000000 0.000000 -1.000000
vn 0.000000 0.000000 -1.000000
vn 0.000000 0.000000 -1.000000
vn 0.000000 -1.000000 0.000000
vn 0.000000 -1.000000 0.000000
vn 0.000000 -1.000000 0.000000
vn 0.000000 -1.000000 0.000000
vn 1.000000 0.000000 0.000000
vn 1.000000 0.000000 0.000000
vn 1.000000 0.000000 0.000000
vn 1.000000 0.000000 0.000000
vn -1.000000 0.000000 0.000000
vn -1.000000 0.000000 0.000000
vn -1.000000 0.000000 0.000000
vn -1.000000 0.000000 0.000000
s off
g pCube1
usemtl initialShadingGroup
f 3/9/1 4/10/2 6/3/3 5/8/4
f 5/8/5 6/3/6 8/2/7 7/5/8
f 7/5/9 8/2/10 2/11/11 1/12/12
f 2/1/13 8/2/14 6/3/15 4/4/16
f 7/5/17 1/6/18 3/7/19 5/8/20
