# This file uses meters as units for non-parametric coordinates.

mtllib MokUnity.mtl
g default
v 161.780000 41.721393 80.497331
v 154.062307 41.721393 80.429805
v 149.896574 41.721393 87.368570
v 153.834597 41.721393 94.254208
v 161.972565 41.721393 94.254208
v 165.770041 41.721393 87.408207
v 161.662638 56.732754 81.897416
v 154.681615 56.595812 81.665254
v 151.430425 55.986709 87.169304
v 155.015661 56.595812 93.164458
v 161.662560 56.370558 93.164458
v 164.915113 56.462597 87.331593
v 157.997018 41.721393 87.331593
v 160.871534 56.732754 82.642278
v 155.226577 56.595812 82.642259
v 152.404002 55.954312 87.401466
v 155.226461 56.563415 92.419596
v 160.871534 56.625949 92.419596
v 163.693993 56.717992 87.331593
v 161.947744 42.513058 80.565899
v 165.898509 42.513058 87.408802
v 161.947744 42.513058 94.251704
v 153.888290 42.513058 94.251704
v 149.937526 42.513058 87.408802
v 154.046371 42.513058 80.565899
v 161.803262 45.427791 80.739001
v 165.609506 45.427791 87.331593
v 161.803262 45.427791 93.924185
v 154.190852 45.427791 93.924185
v 150.177004 45.427791 87.383942
v 154.190852 45.777486 80.738981
v 161.742087 51.170131 81.146534
v 165.289760 51.170131 87.291362
v 161.742048 51.170131 93.436169
v 154.646741 51.170131 93.436169
v 150.891386 51.170131 87.343711
v 154.564448 51.290164 81.252782
v 161.735658 54.040079 81.454678
v 165.128758 54.040079 87.331593
v 161.735619 54.040079 93.208507
v 154.801354 54.040079 93.208507
v 151.254499 54.040079 87.331593
v 154.801432 54.040079 81.454668
v 161.992320 51.741812 80.371572
v 165.884871 51.741812 87.271986
v 161.889725 51.741812 94.191766
v 154.002029 51.741812 94.211132
v 150.006922 51.741812 87.291362
v 154.002029 51.741812 80.371562
v 162.252761 53.388438 80.355255
v 166.202863 53.388438 87.197106
v 162.144555 53.388438 94.133192
v 154.244429 53.388438 94.133192
v 150.294210 53.388438 87.291362
v 154.244429 53.388438 80.449521
v 162.312221 43.090999 79.956888
v 166.827275 43.090999 87.331593
v 162.412166 43.090999 94.978750
v 153.582104 43.090999 94.978750
v 149.166956 43.090999 87.331593
v 153.482120 43.090999 79.956888
v 162.301896 44.889669 79.875432
v 166.606695 44.889669 87.331593
v 162.301896 44.889669 94.787753
v 153.692453 44.889669 94.787753
v 149.387537 44.676780 87.331593
v 153.692453 44.676780 79.875403
v 159.294198 45.885041 80.739001
v 159.381791 47.712609 80.731490
v 156.511561 45.885041 80.738981
v 156.612480 47.712609 80.731490
v 159.294198 46.047612 78.323393
v 159.381791 47.550029 79.480669
v 156.696371 46.047621 78.552400
v 156.612480 47.550029 79.480669
v 159.458006 50.156139 76.185479
v 159.381791 50.791321 77.675739
v 156.861387 50.156153 76.414505
v 156.720607 50.791321 77.675739
v 159.300705 55.352032 76.864052
v 159.519025 54.181624 78.071144
v 156.519315 55.352041 76.864062
v 156.857842 54.181624 78.071144
v 159.680106 56.420799 79.524661
v 159.579109 55.102029 79.518085
v 156.945668 56.420813 79.524670
v 156.809837 55.102029 79.518085
v 159.669546 55.974203 81.622977
v 156.956111 55.974203 81.622967
v 159.733332 54.637371 81.445112
v 156.655575 54.637371 81.445102
v 160.871534 44.346967 82.642278
v 155.226577 44.210025 82.642259
v 152.404002 43.568525 87.401466
v 155.226461 44.177628 92.419596
v 160.871534 44.240162 92.419596
v 163.693993 44.332206 87.331593
v 158.289878 44.332206 87.445292
vt 0.568588 0.204368
vt 0.693225 0.206161
vt 0.564599 0.348093
vt 0.423537 0.204368
vt 0.416754 0.348093
vt 0.281204 0.205265
vt 0.283533 0.348093
vt 0.148338 0.205265
vt 0.150520 0.359750
vt 0.051707 0.213963
vt 0.049661 0.366322
vt 0.740323 0.214524
vt 0.011158 0.265681
vt 0.009984 0.216638
vt 0.848056 0.214859
vt 0.799554 0.216638
vt 0.845230 0.354665
vt 0.693742 0.348093
vt 0.736618 0.262095
vt 0.800333 0.265681
vt 0.598467 0.081670
vt 0.738007 0.113413
vt 0.729540 0.126694
vt 0.588073 0.097224
vt 0.449178 0.068263
vt 0.441095 0.084072
vt 0.298303 0.071575
vt 0.293577 0.087664
vt 0.152869 0.092300
vt 0.147414 0.107956
vt 0.009121 0.128356
vt 0.009694 0.145663
vt 0.729715 0.176995
vt 0.573502 0.145889
vt 0.583348 0.129340
vt 0.432134 0.134074
vt 0.440042 0.116516
vt 0.290131 0.138289
vt 0.296209 0.120019
vt 0.152286 0.154896
vt 0.153174 0.136044
vt 0.028862 0.195350
vt 0.014380 0.173961
vt 0.868135 0.135815
vt 0.854600 0.202023
vt 0.866670 0.179187
vt 0.874964 0.151729
vt 0.724233 0.158536
vt 0.138075 0.094257
vt 0.283659 0.074142
vt 0.432948 0.068296
vt 0.580697 0.080031
vt 0.727186 0.111120
vt 0.712552 0.173845
vt 0.587984 0.148030
vt 0.446793 0.134550
vt 0.304958 0.137171
vt 0.162667 0.152355
vt 0.027669 0.034372
vt 0.029091 0.055385
vt 0.754334 0.055385
vt 0.175632 0.034372
vt 0.176327 0.055385
vt 0.319218 0.034372
vt 0.319995 0.055385
vt 0.466695 0.034372
vt 0.466345 0.055385
vt 0.609404 0.034372
vt 0.608678 0.055385
vt 0.756760 0.034372
vt 0.898474 0.034372
vt 0.899896 0.055385
vt 0.568643 0.410200
vt 0.703561 0.412563
vt 0.565077 0.424771
vt 0.436784 0.399454
vt 0.425411 0.412455
vt 0.301711 0.378646
vt 0.288194 0.394332
vt 0.157006 0.374174
vt 0.148031 0.390817
vt 0.015006 0.390430
vt 0.009109 0.409770
vt 0.717349 0.464756
vt 0.553014 0.474615
vt 0.566245 0.456277
vt 0.416010 0.463021
vt 0.425786 0.443793
vt 0.278680 0.446046
vt 0.288351 0.425655
vt 0.144646 0.442397
vt 0.149765 0.422179
vt 0.025566 0.460516
vt 0.012408 0.440919
vt 0.692591 0.398431
vt 0.829003 0.373013
vt 0.837050 0.442919
vt 0.842813 0.420029
vt 0.841728 0.388725
vt 0.704319 0.443893
vt 0.158328 0.441196
vt 0.295378 0.447101
vt 0.434451 0.463546
vt 0.575505 0.476907
vt 0.694107 0.466271
vt 0.138792 0.374318
vt 0.282590 0.374399
vt 0.425111 0.395184
vt 0.560808 0.410390
vt 0.704905 0.394724
vt 0.056237 0.557864
vt 0.070280 0.573053
vt 0.673453 0.583389
vt 0.172176 0.531844
vt 0.184157 0.545964
vt 0.301674 0.539644
vt 0.305714 0.553391
vt 0.424646 0.537496
vt 0.428329 0.557886
vt 0.547899 0.545397
vt 0.556023 0.567065
vt 0.552206 0.497363
vt 0.676627 0.513658
vt 0.426869 0.491284
vt 0.298669 0.488864
vt 0.171806 0.492970
vt 0.045775 0.508045
vt 0.012725 0.552549
vt 0.709163 0.534937
vt 0.013851 0.525273
vt 0.788404 0.598261
vt 0.773654 0.612765
vt 0.663295 0.566054
vt 0.703106 0.560995
vt 0.751320 0.574885
vt 0.800225 0.547782
vt 0.764022 0.550083
vt 0.535695 0.565059
vt 0.655690 0.584652
vt 0.410100 0.552252
vt 0.291245 0.549470
vt 0.170847 0.550314
vt 0.126753 0.870869
vt 0.681762 0.872945
vt 0.684099 0.611653
vt 0.129091 0.609578
vt 0.573093 0.858439
vt 0.575430 0.597147
vt 0.459780 0.870275
vt 0.462118 0.608984
vt 0.348780 0.870602
vt 0.351117 0.609310
vt 0.234366 0.871521
vt 0.236703 0.610229
vt 0.015793 0.866987
vt 0.018130 0.605696
vt 0.952847 0.351304
vt 0.876266 0.351304
vt 0.917824 0.276064
vt 0.837975 0.276750
vt 0.876265 0.198141
vt 0.952847 0.198141
vt 0.991138 0.277845
vt 0.877554 0.550728
vt 0.955917 0.549699
vt 0.917259 0.470137
vt 0.835005 0.469960
vt 0.874744 0.389556
vt 0.957377 0.389301
vt 0.996183 0.469000
vt 0.862349 0.937801
vt 0.831557 0.938895
vt 0.839237 0.903882
vt 0.870522 0.901761
vt 0.806097 0.949054
vt 0.757569 0.954834
vt 0.742320 0.877147
vt 0.783690 0.898149
vt 0.855982 0.816949
vt 0.887071 0.813086
vt 0.783246 0.773256
vt 0.798548 0.800100
vt 0.896948 0.718566
vt 0.933604 0.722383
vt 0.834321 0.647547
vt 0.847270 0.687855
vt 0.930945 0.676776
vt 0.963462 0.679470
vt 0.866808 0.621855
vt 0.885817 0.640303
vt 0.950631 0.644946
vt 0.844369 0.532714
vt 0.882201 0.586121
vt 0.905951 0.608591
vt 0.946035 0.692268
vt 0.837275 0.583898
vt 0.835541 0.574092
vt 0.971964 0.644525
vt 0.914068 0.748514
vt 0.756315 0.684330
vt 0.810618 0.605505
vt 0.885586 0.827857
vt 0.717601 0.787961
vt 0.738081 0.751491
vt 0.863609 0.920530
vt 0.689132 0.946784
vt 0.697329 0.860896
vt 0.695134 0.975227
vt 0.865713 0.629457
vt 0.812697 0.698812
vt 0.759910 0.798493
vt 0.751726 0.928423
vn 0.004288 0.127789 -0.991792
vn 0.004288 0.127789 -0.991792
vn 0.004288 0.127789 -0.991792
vn 0.004288 0.127789 -0.991792
vn -0.855195 0.070692 -0.513463
vn -0.855195 0.070692 -0.513463
vn -0.855195 0.070692 -0.513463
vn -0.855195 0.070692 -0.513463
vn -0.866355 0.039925 0.497831
vn -0.866355 0.039925 0.497831
vn -0.866355 0.039925 0.497831
vn -0.866355 0.039925 0.497831
vn 0.000000 0.003162 0.999995
vn 0.000000 0.003162 0.999995
vn 0.000000 0.003162 0.999995
vn 0.000000 0.003162 0.999995
vn 0.868883 -0.056285 0.491808
vn 0.868883 -0.056285 0.491808
vn 0.868883 -0.056285 0.491808
vn 0.868883 -0.056285 0.491808
vn 0.857639 -0.138818 -0.495162
vn 0.857639 -0.138818 -0.495162
vn 0.857639 -0.138818 -0.495162
vn 0.857639 -0.138818 -0.495162
vn 0.000000 -1.000000 0.000000
vn 0.000000 -1.000000 0.000000
vn 0.000000 -1.000000 0.000000
vn 0.000000 -1.000000 0.000000
vn 0.000000 -1.000000 0.000000
vn 0.000000 -1.000000 0.000000
vn 0.000000 -1.000000 0.000000
vn -0.021630 0.999761 -0.003092
vn -0.021630 0.999761 -0.003092
vn -0.021630 0.999761 -0.003092
vn -0.021630 0.999761 -0.003092
vn -0.051168 0.994544 0.090906
vn -0.051168 0.994544 0.090906
vn -0.051168 0.994544 0.090906
vn -0.051168 0.994544 0.090906
vn 0.005417 0.993574 -0.113054
vn 0.005417 0.993574 -0.113054
vn 0.005417 0.993574 -0.113054
vn 0.005417 0.993574 -0.113054
vn 0.013101 0.989631 0.143033
vn 0.013101 0.989631 0.143033
vn 0.013101 0.989631 0.143033
vn 0.013101 0.989631 0.143033
vn 0.199496 0.971588 0.127352
vn 0.199496 0.971588 0.127352
vn 0.199496 0.971588 0.127352
vn 0.199496 0.971588 0.127352
vn 0.111589 0.992988 -0.039016
vn 0.111589 0.992988 -0.039016
vn 0.111589 0.992988 -0.039016
vn 0.111590 0.992988 -0.039016
vn 0.865162 0.044670 -0.499499
vn 0.865162 0.044670 -0.499499
vn 0.865162 0.044670 -0.499499
vn 0.865162 0.044670 -0.499499
vn 0.864869 0.051656 0.499333
vn 0.864869 0.051656 0.499333
vn 0.864869 0.051656 0.499333
vn 0.864869 0.051656 0.499333
vn 0.000000 0.084680 0.996408
vn 0.000000 0.084680 0.996408
vn 0.000000 0.084680 0.996408
vn 0.000000 0.084680 0.996408
vn -0.846612 0.110217 0.520673
vn -0.846612 0.110217 0.520673
vn -0.846612 0.110217 0.520673
vn -0.846612 0.110217 0.520673
vn -0.853195 0.103981 -0.511122
vn -0.853195 0.103981 -0.511122
vn -0.853195 0.103981 -0.511122
vn -0.853195 0.103981 -0.511122
vn 0.859524 0.091689 -0.502804
vn 0.859524 0.091689 -0.502804
vn 0.859524 0.091689 -0.502804
vn 0.859524 0.091689 -0.502804
vn 0.868096 0.056934 0.493121
vn 0.868096 0.056934 0.493121
vn 0.868096 0.056934 0.493121
vn 0.868096 0.056934 0.493121
vn 0.000299 0.018019 0.999838
vn 0.000299 0.018019 0.999838
vn 0.000299 0.018019 0.999838
vn 0.000299 0.018019 0.999838
vn -0.855330 0.097453 0.508836
vn -0.855330 0.097453 0.508836
vn -0.855330 0.097453 0.508836
vn -0.855330 0.097453 0.508836
vn -0.858774 0.016195 -0.512099
vn -0.858774 0.016195 -0.512099
vn -0.858774 0.016195 -0.512099
vn -0.858774 0.016195 -0.512099
vn 0.680125 -0.733064 0.006916
vn 0.315517 -0.825981 -0.467123
vn 0.435377 -0.325746 -0.839248
vn 0.944613 -0.327876 0.014249
vn 0.351568 -0.780034 0.517636
vn 0.433034 -0.284198 0.855402
vn -0.241834 -0.849513 0.468876
vn -0.520195 -0.224246 0.824082
vn -0.479417 -0.877305 0.022258
vn -0.978179 -0.207759 0.001085
vn -0.228945 -0.883434 -0.408813
vn -0.509799 -0.243139 -0.825220
vn 0.245945 0.876199 -0.414471
vn 0.524807 0.851044 0.017359
vn 0.975309 0.220317 -0.015236
vn 0.493332 0.300470 -0.816297
vn 0.280433 0.841593 0.461604
vn 0.504195 0.278240 0.817539
vn -0.260055 0.847045 0.463558
vn -0.444086 0.382673 0.810154
vn -0.529989 0.847990 0.004977
vn -0.906693 0.421781 -0.003022
vn -0.247942 0.866927 -0.432391
vn -0.438615 0.396750 -0.806354
vn 0.554082 -0.832416 0.008746
vn 0.293328 -0.799761 -0.523775
vn 0.495080 -0.249643 -0.832210
vn 0.978588 -0.205669 -0.008165
vn 0.272436 -0.830379 0.486054
vn 0.493980 -0.182415 0.850123
vn -0.310087 -0.803521 0.508134
vn -0.473200 -0.165659 0.865239
vn -0.587879 -0.808881 0.010424
vn -0.982656 -0.185213 0.009100
vn -0.267964 -0.800815 -0.535621
vn -0.508756 -0.242425 -0.826073
vn 0.224265 0.823676 -0.520829
vn 0.474898 0.880041 0.000000
vn 0.936718 0.350075 -0.002620
vn 0.460649 0.293561 -0.837630
vn 0.237450 0.880037 0.411282
vn 0.464016 0.372535 0.803684
vn -0.290156 0.845837 0.447626
vn -0.459951 0.363789 0.810002
vn -0.659879 0.748841 -0.061613
vn -0.935950 0.351959 -0.011060
vn -0.358595 0.738685 -0.570749
vn -0.444131 0.304848 -0.842505
vn 0.052643 0.052514 -0.997232
vn 0.052643 0.052514 -0.997232
vn 0.052643 0.052514 -0.997232
vn 0.052643 0.052514 -0.997232
vn -0.061107 0.072616 -0.995486
vn -0.061107 0.072616 -0.995486
vn -0.061107 0.072616 -0.995486
vn -0.061107 0.072616 -0.995486
vn 0.000004 0.000001 -1.000000
vn 0.000004 0.000001 -1.000000
vn 0.000004 0.000001 -1.000000
vn 0.000004 0.000001 -1.000000
vn -0.008990 0.132319 -0.991166
vn -0.008990 0.132319 -0.991166
vn -0.008990 0.132319 -0.991166
vn -0.008990 0.132319 -0.991166
vn 0.998619 -0.052536 0.000000
vn 0.998619 -0.052536 0.000000
vn 0.999597 -0.027570 0.006745
vn 0.999560 -0.028969 0.006368
vn -0.998359 0.019947 -0.053676
vn -0.998359 0.019947 -0.053676
vn -0.996900 -0.001344 -0.078663
vn -0.996966 -0.000640 -0.077838
vn -0.003006 -0.997500 -0.070595
vn -0.003006 -0.997501 -0.070595
vn -0.056803 -0.749385 -0.659693
vn -0.061006 -0.706733 -0.704845
vn 0.000000 0.991658 -0.128894
vn 0.000000 0.991658 -0.128894
vn 0.000000 0.707702 0.706511
vn 0.000000 0.710642 0.703554
vn 0.999895 -0.007858 -0.012197
vn 0.999747 -0.003576 -0.022209
vn -0.999749 -0.022392 -0.000462
vn -0.999277 -0.018534 -0.033190
vn -0.061421 -0.161321 -0.984989
vn -0.061190 -0.157758 -0.985580
vn 0.000000 0.207356 0.978266
vn 0.000000 0.217589 0.976040
vn 0.997293 0.003547 -0.073441
vn 0.997767 0.005111 -0.066596
vn -0.996049 -0.030622 0.083355
vn -0.995657 -0.030459 0.087973
vn -0.031722 0.448524 -0.893208
vn -0.030546 0.477182 -0.878273
vn 0.000000 -0.405636 0.914035
vn 0.000000 -0.395630 0.918410
vn 0.997417 -0.007485 -0.071431
vn 0.997005 -0.006832 -0.077033
vn -0.996735 0.051444 0.062233
vn -0.996287 0.067430 0.053534
vn 0.000003 0.989446 -0.144900
vn 0.000003 0.992884 -0.119087
vn 0.000000 -0.994585 0.103930
vn 0.000000 -0.994488 0.104850
vn 0.020102 0.227518 -0.973567
vn 0.020102 0.227518 -0.973567
vn 0.020102 0.227518 -0.973567
vn 0.020102 0.227518 -0.973566
vn 0.063871 0.154027 -0.986000
vn 0.063871 0.154027 -0.986000
vn 0.063871 0.154027 -0.986000
vn 0.063871 0.154027 -0.986000
vn -0.011908 0.099840 -0.994932
vn -0.011908 0.099840 -0.994932
vn -0.011908 0.099840 -0.994932
vn -0.011908 0.099840 -0.994932
vn 0.000002 -0.016013 -0.999872
vn 0.000002 -0.016013 -0.999872
vn 0.000002 -0.016013 -0.999872
vn 0.000002 -0.016013 -0.999872
vn 0.999205 -0.011346 -0.038230
vn 0.999205 -0.011346 -0.038230
vn -0.986782 0.162047 0.001429
vn -0.986782 0.162047 0.001429
vn 0.000002 0.978091 0.208177
vn 0.000002 0.978091 0.208176
vn 0.000000 -0.972138 -0.234409
vn 0.000000 -0.972138 -0.234409
vn -0.000003 0.000000 1.000000
vn -0.000003 0.000000 1.000000
vn -0.000003 0.000000 1.000000
vn -0.000003 0.000000 1.000000
vn 0.860109 0.000000 0.510111
vn 0.860109 0.000000 0.510111
vn 0.860109 0.000000 0.510111
vn 0.860109 0.000000 0.510111
vn 0.871593 0.000000 -0.490230
vn 0.871593 0.000000 -0.490230
vn 0.871593 0.000000 -0.490230
vn 0.871593 0.000000 -0.490230
vn 0.000000 0.000000 -1.000000
vn 0.000000 0.000000 -1.000000
vn 0.000000 0.000000 -1.000000
vn 0.000000 0.000000 -1.000000
vn -0.874464 0.000000 -0.485090
vn -0.874464 0.000000 -0.485090
vn -0.874464 0.000000 -0.485090
vn -0.874464 0.000000 -0.485090
vn -0.856777 0.000000 0.515687
vn -0.856777 0.000000 0.515687
vn -0.856777 0.000000 0.515687
vn -0.856777 0.000000 0.515687
vn -0.024251 0.999656 -0.009963
vn -0.024251 0.999656 -0.009963
vn -0.024251 0.999656 -0.009963
vn -0.128878 0.990020 0.057012
vn -0.128878 0.990020 0.057012
vn -0.128878 0.990020 0.057012
vn -0.128168 0.990583 -0.048150
vn -0.128168 0.990583 -0.048150
vn -0.128168 0.990583 -0.048150
vn -0.011074 0.999645 0.024245
vn -0.011074 0.999645 0.024245
vn -0.011074 0.999645 0.024245
vn 0.000385 0.999833 0.018301
vn 0.000385 0.999833 0.018301
vn 0.000385 0.999833 0.018301
vn 0.000065 0.999995 0.003109
vn 0.000065 0.999995 0.003109
vn 0.000065 0.999995 0.003109
s off
g MokLowOriginal
usemtl lambert6SG
f 1/70/1 2/71/2 25/72/3 20/61/4
f 2/59/5 3/62/6 24/63/7 25/60/8
f 3/62/9 4/64/10 23/65/11 24/63/12
f 4/64/13 5/66/14 22/67/15 23/65/16
f 5/66/17 6/68/18 21/69/19 22/67/20
f 6/68/21 1/70/22 20/61/23 21/69/24
s 1
f 2/164/25 1/165/26 13/166/27
f 3/167/28 2/164/25 13/166/27
f 4/168/29 3/167/28 13/166/27
f 5/169/30 4/168/29 13/166/27
f 6/170/31 5/169/30 13/166/27
f 1/165/26 6/170/31 13/166/27
s off
f 7/133/32 8/131/33 15/132/34 14/113/35
f 8/111/36 9/114/37 16/142/38 15/112/39
f 9/114/40 10/116/41 17/141/42 16/115/43
f 10/116/44 11/118/45 18/140/46 17/117/47
f 11/118/48 12/120/49 19/138/50 18/119/51
f 12/120/52 7/133/53 14/139/54 19/121/55
f 27/1/56 26/2/57 32/18/58 33/3/59
f 28/4/60 27/1/61 33/3/62 34/5/63
f 29/6/64 28/4/65 34/5/66 35/7/67
f 30/8/68 29/6/69 35/7/70 36/9/71
f 31/10/72 30/8/73 36/9/74 37/11/75
f 39/122/76 38/123/77 7/133/78 12/120/79
f 40/124/80 39/122/81 12/120/82 11/118/83
f 41/125/84 40/124/85 11/118/86 10/116/87
f 42/126/88 41/125/89 10/116/90 9/114/91
f 43/127/92 42/126/93 9/114/94 8/111/95
s 2
f 33/73/96 32/95/97 44/74/98 45/75/99
f 34/76/100 33/109/96 45/75/99 46/77/101
f 35/78/102 34/108/100 46/77/101 47/79/103
f 36/80/104 35/107/102 47/79/103 48/81/105
f 37/82/106 36/106/104 48/81/105 49/83/107
f 32/110/97 37/96/106 49/99/107 44/74/98
f 38/105/108 39/104/109 51/86/110 50/100/111
f 39/85/109 40/103/112 52/88/113 51/86/110
f 40/87/112 41/102/114 53/90/115 52/88/113
f 41/89/114 42/101/116 54/92/117 53/90/115
f 42/91/116 43/93/118 55/94/119 54/92/117
f 43/97/118 38/84/108 50/100/111 55/98/119
f 46/77/101 45/75/99 51/86/110 52/88/113
f 47/79/103 46/77/101 52/88/113 53/90/115
f 48/81/105 47/79/103 53/90/115 54/92/117
f 49/83/107 48/81/105 54/92/117 55/94/119
f 44/74/98 49/99/107 55/98/119 50/100/111
f 45/75/99 44/74/98 50/100/111 51/86/110
s 4
f 21/21/120 20/53/121 56/23/122 57/24/123
f 22/25/124 21/52/120 57/24/123 58/26/125
f 23/27/126 22/51/124 58/26/125 59/28/127
f 24/29/128 23/50/126 59/28/127 60/30/129
f 25/31/130 24/49/128 60/30/129 61/32/131
f 20/22/121 25/44/130 61/47/131 56/23/122
f 26/54/132 27/55/133 63/35/134 62/48/135
f 27/34/133 28/56/136 64/37/137 63/35/134
f 28/36/136 29/57/138 65/39/139 64/37/137
f 29/38/138 30/58/140 66/41/141 65/39/139
f 30/40/140 31/42/142 67/43/143 66/41/141
f 31/45/142 26/33/132 62/48/135 67/46/143
f 58/26/125 57/24/123 63/35/134 64/37/137
f 57/24/123 56/23/122 62/48/135 63/35/134
f 56/23/122 61/47/131 67/46/143 62/48/135
f 61/32/131 60/30/129 66/41/141 67/43/143
f 60/30/129 59/28/127 65/39/139 66/41/141
f 59/28/127 58/26/125 64/37/137 65/39/139
s off
f 32/18/144 26/2/145 68/12/146 69/19/147
f 31/10/148 37/11/149 71/13/150 70/14/151
f 26/2/152 31/15/153 70/16/154 68/12/155
f 37/17/156 32/18/157 69/19/158 71/20/159
s 6
f 69/171/160 68/172/161 72/173/162 73/205/163
s 7
f 70/175/164 71/176/165 75/212/166 74/178/167
s 8
f 68/172/168 70/175/169 74/178/170 72/173/171
s 9
f 71/176/172 69/208/173 73/206/174 75/212/175
s 6
f 73/174/163 72/173/162 76/179/176 77/202/177
s 7
f 74/178/167 75/177/166 79/211/178 78/182/179
s 8
f 72/173/171 74/178/170 78/182/180 76/179/181
s 9
f 75/177/175 73/207/174 77/203/182 79/211/183
s 6
f 77/180/177 76/179/176 80/183/184 81/199/185
s 7
f 78/182/179 79/181/178 83/210/186 82/186/187
s 8
f 76/179/181 78/182/180 82/186/188 80/183/189
s 9
f 79/181/183 77/204/182 81/200/190 83/210/191
s 6
f 81/184/185 80/183/184 84/187/192 85/195/193
s 7
f 82/186/187 83/185/186 87/209/194 86/190/195
s 8
f 80/183/189 82/186/188 86/190/196 84/187/197
s 9
f 83/185/191 81/201/190 85/196/198 87/209/199
s off
f 8/131/200 7/133/201 88/134/202 89/135/203
f 7/133/204 38/123/205 90/129/206 88/134/207
f 43/127/208 8/111/209 89/128/210 91/130/211
f 38/123/212 43/136/213 91/137/214 90/129/215
s 6
f 85/188/193 84/187/192 88/191/216 90/198/217
s 7
f 86/190/195 87/189/194 91/193/218 89/194/219
s 8
f 84/187/197 86/190/196 89/194/220 88/191/221
s 9
f 87/189/199 85/197/198 90/192/222 91/193/223
s off
f 14/143/224 15/155/225 93/156/226 92/146/227
f 15/144/228 16/147/229 94/148/230 93/145/231
f 16/147/232 17/149/233 95/150/234 94/148/235
f 17/149/236 18/151/237 96/152/238 95/150/239
f 18/151/240 19/153/241 97/154/242 96/152/243
f 19/153/244 14/143/245 92/146/246 97/154/247
f 92/157/248 93/158/249 98/159/250
f 93/158/251 94/160/252 98/159/253
f 94/160/254 95/161/255 98/159/256
f 95/161/257 96/162/258 98/159/259
f 96/162/260 97/163/261 98/159/262
f 97/163/263 92/157/264 98/159/265
